<?xml version="1.0" encoding="UTF-8"?> <svg xmlns="http://www.w3.org/2000/svg" id="Layer_1" data-name="Layer 1" viewBox="0 0 120 135"><defs><style>.cls-1{fill:#117746;}.cls-2{fill:#fff;}</style></defs><title>01_INSTANA_IconSet</title><path class="cls-1" d="M52,4.64,9.56,29.15A16,16,0,0,0,1.57,43V92a16,16,0,0,0,8,13.84L52,130.36a16,16,0,0,0,16,0l42.45-24.51a16,16,0,0,0,8-13.84V43a16,16,0,0,0-8-13.84L68,4.64A16,16,0,0,0,52,4.64Z"></path><path class="cls-2" d="M60,46.34v0L64.17,90.1c4.85-2.59,14-9.89,10.67-27.25C74.84,62.85,72.35,49,60,35h0C47.66,49,45.16,62.84,45.16,62.84,41.87,80.21,51,87.5,55.83,90.09Z"></path><polygon class="cls-2" points="55.83 90.09 55.84 100 64.16 100 64.17 90.09 60.01 92.79 55.83 90.09"></polygon></svg> 